<?xml version="1.0" standalone="no"?>
<svg xmlns="http://www.w3.org/2000/svg" viewBox="0 0 221.712 29" width="221.712" height="29"><g fill="#a16aff" color="#a16aff" transform="translate(0, 0) scale(0.0566407)"><svg width="512.0" height="512.0" x="0.0" y="0.0" viewBox="0 0 512 512"><g><path d="M490.7,53.3H21.3v320h469.3V53.3z M277.3,138.6h160V160h-160V138.6z M341.3,192v21.3h-32V192H341.3z M288,192v21.3H160V192   H288z M256,160h-42.7v-21.3H256V160z M192,85.3h53.3v21.3H192V85.3z M74.7,85.3h96v21.3h-96V85.3z M74.7,138.6H192V160H74.7V138.6z    M74.7,192h64v21.3h-64V192z M74.7,245.3h96v21.3h-96V245.3z M234.7,341.3h-160V320h160V341.3z M245.3,266.6H192v-21.3h53.3V266.6z    M322.2,307.1l-15.1,15.1l-44.9-44.9l44.9-44.9l15.1,15.1l-29.8,29.8L322.2,307.1z M345.9,334.6l-19.8-7.9L368.8,220l19.8,7.9   L345.9,334.6z M407.5,322.2l-15.1-15.1l29.8-29.8l-29.8-29.8l15.1-15.1l44.9,44.9L407.5,322.2z"></path><path d="M0,394.7v24.5l26.2,39.5h459.5l26.2-39.5v-24.5H0z M224,437.3h-21.3V416H224V437.3z M266.7,437.3h-21.3V416h21.3V437.3z    M309.3,437.3H288V416h21.3V437.3z"></path></g></svg></g><line x1="41" y1="1" x2="41" y2="28" stroke="#5e00ff" stroke-linecap="round"></line><path fill="#5e00ff" fill-rule="nonzero" d="M9.12 2.40L14.59 18.05L11.11 18.05L10.15 15.10L4.42 15.10L3.48 18.05L0 18.05L5.47 2.40Q5.83 1.58 6.28 1.27Q6.72 0.96 7.37 0.96Q8.02 0.96 8.41 1.25Q8.81 1.54 9.12 2.40L9.12 2.40ZM5.26 12.29L9.38 12.29L7.37 5.52L5.26 12.29ZM27.65 10.82L27.65 10.82Q27.65 16.18 24.89 17.66L24.89 17.66Q23.76 18.26 22.13 18.26L22.13 18.26L19.82 16.78L19.82 22.13L16.70 22.13L16.70 4.44L22.85 4.44Q25.63 4.44 26.64 6.01Q27.65 7.58 27.65 10.82ZM24.53 11.30L24.53 11.30Q24.53 7.25 21.94 7.25L21.94 7.25L19.82 7.25L19.82 13.61L21.94 14.98Q23.33 14.98 23.93 14.10Q24.53 13.22 24.53 11.30ZM43.27 9.43L43.27 9.43L43.30 11.28Q43.20 13.03 42.86 14.23Q42.53 15.43 41.54 16.42L41.54 16.42Q39.91 18.05 36.79 18.05L36.79 18.05Q33.12 18.05 31.75 17.08Q30.38 16.10 30.38 13.56L30.38 13.56L30.38 0.96L37.03 0.96Q39.91 0.96 41.54 2.59L41.54 2.59Q42.86 3.91 43.10 5.81L43.10 5.81Q43.27 7.15 43.27 9.43ZM39.22 14.02Q39.67 13.46 39.80 12.49Q39.94 11.52 39.94 9.46Q39.94 7.39 39.80 6.47Q39.67 5.54 39.22 4.99L39.22 4.99Q38.35 3.94 36.72 3.94L36.72 3.94L33.72 3.94L33.72 13.39Q33.72 14.35 34.37 14.71Q35.02 15.07 36.68 15.07Q38.35 15.07 39.22 14.02L39.22 14.02ZM56.23 11.93L56.23 11.93L48.24 11.93Q48.24 13.80 48.83 14.66Q49.42 15.53 51.19 15.53L51.19 15.53Q52.34 15.53 52.90 14.80Q53.45 14.06 53.45 13.39L53.45 13.39L56.26 13.39Q56.26 15.96 54.88 17.16Q53.50 18.36 51.23 18.36Q48.96 18.36 47.71 17.71L47.71 17.71Q45.14 16.39 45.14 10.70L45.14 10.70Q45.14 7.32 46.61 5.75Q48.07 4.18 51.07 4.18L51.07 4.18Q56.28 4.18 56.28 9.96L56.28 9.96Q56.28 10.58 56.23 11.93ZM48.31 9.79L48.31 9.79L53.45 9.79Q53.45 8.21 52.85 7.49Q52.25 6.77 51.01 6.77Q49.78 6.77 49.04 7.50Q48.31 8.23 48.31 9.79ZM65.81 4.34L69.10 4.34L64.51 18.05L62.06 18.05L57.46 4.34L60.74 4.34L63.29 13.27L65.81 4.34ZM81.22 11.93L81.22 11.93L73.22 11.93Q73.22 13.80 73.81 14.66Q74.40 15.53 76.18 15.53L76.18 15.53Q77.33 15.53 77.88 14.80Q78.43 14.06 78.43 13.39L78.43 13.39L81.24 13.39Q81.24 15.96 79.86 17.16Q78.48 18.36 76.21 18.36Q73.94 18.36 72.70 17.71L72.70 17.71Q70.13 16.39 70.13 10.70L70.13 10.70Q70.13 7.32 71.59 5.75Q73.06 4.18 76.06 4.18L76.06 4.18Q81.26 4.18 81.26 9.96L81.26 9.96Q81.26 10.58 81.22 11.93ZM73.30 9.79L73.30 9.79L78.43 9.79Q78.43 8.21 77.83 7.49Q77.23 6.77 76.00 6.77Q74.76 6.77 74.03 7.50Q73.30 8.23 73.30 9.79ZM87.10 0L87.10 18.05L83.98 18.07L83.98 0L87.10 0ZM97.87 11.86L97.87 11.86L97.87 10.61Q97.87 8.83 97.36 7.90Q96.84 6.96 95.21 6.96L95.21 6.96Q92.57 6.96 92.57 10.51L92.57 10.51L92.57 11.76Q92.57 15.58 95.21 15.58L95.21 15.58Q96.91 15.58 97.44 14.30L97.44 14.30Q97.87 13.30 97.87 11.86ZM100.99 11.14L100.99 11.14Q100.99 15.58 99.31 17.09L99.31 17.09Q97.90 18.38 95.21 18.38L95.21 18.38Q91.78 18.38 90.58 16.37L90.58 16.37Q89.45 14.52 89.45 11.14L89.45 11.14Q89.45 7.97 90.58 6.17L90.58 6.17Q91.82 4.15 95.12 4.15Q98.42 4.15 99.71 5.92Q100.99 7.68 100.99 11.14ZM114.43 10.82L114.43 10.82Q114.43 16.18 111.67 17.66L111.67 17.66Q110.54 18.26 108.91 18.26L108.91 18.26L106.61 16.78L106.61 22.13L103.49 22.13L103.49 4.44L109.63 4.44Q112.42 4.44 113.42 6.01Q114.43 7.58 114.43 10.82ZM111.31 11.30L111.31 11.30Q111.31 7.25 108.72 7.25L108.72 7.25L106.61 7.25L106.61 13.61L108.72 14.98Q110.11 14.98 110.71 14.10Q111.31 13.22 111.31 11.30ZM134.59 8.86L134.59 18.05L131.47 18.05L131.47 9.53Q131.47 8.26 131.17 7.75Q130.87 7.25 130.13 7.25L130.13 7.25L127.32 8.42L127.32 18.05L124.20 18.05L124.20 9.53Q124.20 7.25 122.62 7.25L122.62 7.25L120.05 8.42L120.05 18.05L116.93 18.05L116.93 4.34L119.26 4.34L119.98 5.98L123.58 4.20Q125.45 4.20 126.41 6.02L126.41 6.02L130.87 4.20Q132.74 4.20 133.67 5.46Q134.59 6.72 134.59 8.86L134.59 8.86ZM148.22 11.93L148.22 11.93L140.23 11.93Q140.23 13.80 140.82 14.66Q141.41 15.53 143.18 15.53L143.18 15.53Q144.34 15.53 144.89 14.80Q145.44 14.06 145.44 13.39L145.44 13.39L148.25 13.39Q148.25 15.96 146.87 17.16Q145.49 18.36 143.22 18.36Q140.95 18.36 139.70 17.71L139.70 17.71Q137.14 16.39 137.14 10.70L137.14 10.70Q137.14 7.32 138.60 5.75Q140.06 4.18 143.06 4.18L143.06 4.18Q148.27 4.18 148.27 9.96L148.27 9.96Q148.27 10.58 148.22 11.93ZM140.30 9.79L140.30 9.79L145.44 9.79Q145.44 8.21 144.84 7.49Q144.24 6.77 143.00 6.77Q141.77 6.77 141.04 7.50Q140.30 8.23 140.30 9.79ZM161.74 8.86L161.74 18.05L158.62 18.05L158.62 9.29Q158.62 8.11 158.14 7.68Q157.66 7.25 156.79 7.25L156.79 7.25L153.98 8.42L153.98 18.05L150.86 18.05L150.86 4.34L153.19 4.34L153.91 5.98L157.75 4.20Q159.36 4.20 160.55 5.39Q161.74 6.58 161.74 8.86L161.74 8.86ZM170.71 15.41L170.71 18.05L168.77 18.05Q166.99 18.05 166.07 16.99Q165.14 15.94 165.14 14.47L165.14 14.47L165.14 7.27L163.82 7.27L163.82 4.90L165.14 4.90L165.14 2.21L168.26 2.21L168.26 4.90L170.47 4.90L170.47 7.27L168.26 7.27L168.26 14.28Q168.26 15.41 169.34 15.41L169.34 15.41L170.71 15.41Z" transform="translate(51, 5.476)"></path></svg>